<?xml version="1.0" encoding="UTF-8" standalone="no"?>
<!DOCTYPE svg PUBLIC "-//W3C//DTD SVG 1.1//EN" "http://www.w3.org/Graphics/SVG/1.1/DTD/svg11.dtd">
<svg width="100%" height="100%" viewBox="0 0 840 360" version="1.1" xmlns="http://www.w3.org/2000/svg" xmlns:xlink="http://www.w3.org/1999/xlink" xml:space="preserve" xmlns:serif="http://www.serif.com/" style="fill-rule:evenodd;clip-rule:evenodd;stroke-linejoin:round;stroke-miterlimit:2;">
    <g transform="matrix(0.0417208,0,0,0.0417208,-114.715,-118.167)">
        <path d="M20793,9670C20398,9620 20076,9397 20005,9123C19978,9020 19993,8832 20033,8753C20058,8706 20121,8648 20175,8624C20281,8578 20485,8568 20606,8605C20679,8626 20743,8687 20771,8758C20788,8803 20793,8837 20794,8925C20795,9076 20775,9119 20644,9245L20548,9336L20586,9370C20651,9427 20800,9481 20932,9495C21011,9503 21129,9487 21229,9454C21548,9348 21791,9011 21849,8596C21855,8553 21860,8460 21860,8389C21860,7939 21705,7624 21412,7476C21313,7426 21272,7419 21045,7411C20801,7402 20798,7401 20802,7322C20806,7252 20813,7248 20968,7220C21161,7185 21287,7136 21416,7044C21645,6882 21779,6561 21742,6265C21729,6158 21688,6037 21639,5954C21595,5879 21470,5754 21397,5711C21265,5634 21101,5598 20964,5618C20920,5624 20845,5643 20798,5660C20644,5716 20495,5834 20520,5881C20531,5901 20603,5936 20710,5974C20806,6008 20874,6060 20914,6130C20943,6182 20945,6190 20945,6295C20945,6390 20942,6411 20922,6447C20887,6513 20843,6557 20782,6587C20728,6613 20718,6615 20590,6615C20485,6615 20443,6611 20402,6597C20293,6559 20196,6459 20162,6350C20139,6276 20140,6090 20163,6001C20243,5701 20558,5474 21011,5389C21120,5369 21166,5366 21395,5365C21681,5365 21788,5377 21969,5429C22332,5534 22601,5752 22690,6013C22742,6167 22740,6409 22684,6559C22570,6867 22202,7130 21740,7234C21628,7259 21629,7263 21750,7275C21905,7290 22110,7346 22258,7416C22617,7583 22803,7801 22871,8135C22891,8233 22886,8507 22862,8620C22816,8834 22735,8983 22580,9141C22461,9261 22354,9336 22179,9423C21942,9539 21688,9615 21400,9656C21273,9674 20893,9682 20793,9670Z" style="fill-rule:nonzero;"/>
        <path d="M6349,8313C6327,8288 6332,8100 6359,7915C6385,7734 6391,7481 6377,7115C6367,6861 6368,6857 6449,6852C6488,6850 6507,6853 6521,6866C6548,6890 6573,6965 6610,7129C6646,7292 6675,7379 6731,7493C6868,7772 7132,7991 7445,8086C7526,8111 7550,8114 7695,8114C7851,8115 7857,8114 7950,8082C8182,8001 8378,7813 8441,7610C8504,7407 8477,7222 8361,7063C8302,6982 8130,6870 7682,6621C7204,6356 7024,6234 6834,6045C6626,5839 6501,5602 6448,5315C6427,5202 6431,4816 6453,4710C6512,4437 6651,4212 6876,4025C7135,3809 7474,3707 7879,3723C8101,3732 8242,3762 8480,3855C8663,3925 8662,3925 8699,3894C8722,3875 8736,3849 8751,3797C8763,3757 8779,3719 8788,3713C8815,3691 8897,3697 8922,3722C8943,3743 8943,3746 8934,3909C8921,4157 8923,4555 8939,4722C8958,4915 8955,4922 8868,4918C8807,4915 8805,4914 8783,4875C8770,4853 8744,4786 8725,4725C8625,4408 8405,4113 8186,4006C7985,3907 7744,3895 7516,3971C7246,4061 7088,4266 7087,4525C7086,4723 7193,4903 7415,5075C7572,5197 7707,5281 8200,5565C8675,5838 8916,6023 9048,6214C9201,6435 9269,6696 9256,7010C9249,7177 9240,7244 9205,7367C9112,7692 8879,7969 8555,8141C8318,8266 8061,8318 7725,8307C7476,8299 7261,8253 6915,8134C6609,8028 6633,8035 6607,8049C6572,8067 6534,8132 6504,8224C6489,8269 6473,8311 6467,8318C6452,8336 6365,8333 6349,8313Z" style="fill-rule:nonzero;"/>
        <path d="M2852,8230C2794,8226 2775,8221 2764,8206C2737,8169 2750,8100 2786,8086C2796,8082 2872,8075 2955,8070C3044,8064 3132,8053 3166,8042C3220,8026 3227,8021 3248,7978C3264,7947 3274,7901 3280,7838C3292,7715 3292,4505 3280,4280C3275,4184 3266,4088 3260,4067C3239,3996 3174,3974 2950,3961C2775,3952 2760,3946 2760,3885C2760,3833 2776,3814 2828,3803C2848,3799 3362,3795 3970,3795C5130,3795 5137,3795 5365,3841C5811,3930 6123,4190 6221,4555C6248,4656 6259,4913 6240,5028C6200,5289 6107,5481 5941,5649C5662,5931 5268,6071 4755,6070C4618,6069 4558,6066 4358,6044L4290,6037L4290,6896C4290,7903 4295,7970 4363,8014C4401,8039 4511,8058 4672,8068C4843,8078 4860,8085 4860,8155C4860,8177 4854,8205 4846,8216C4832,8235 4810,8235 3878,8235C3354,8235 2892,8233 2852,8230ZM4635,5840C4894,5774 5056,5588 5128,5275C5206,4937 5173,4495 5053,4256C4984,4118 4895,4038 4763,3994C4695,3971 4673,3968 4590,3972C4445,3979 4366,4025 4316,4130C4295,4175 4295,4182 4292,5024L4290,5873L4422,5867C4504,5863 4586,5853 4635,5840Z" style="fill-rule:nonzero;"/>
        <path d="M15690,8227C15656,8215 15655,8213 15652,8157C15649,8100 15649,8099 15682,8086C15702,8078 15774,8070 15860,8067C15982,8063 16015,8058 16064,8039C16144,8007 16158,7984 16171,7875C16177,7817 16180,7137 16178,5980C16175,4285 16174,4172 16157,4123C16124,4027 16031,3980 15869,3980C15769,3979 15710,3967 15693,3944C15674,3917 15676,3835 15697,3814C15714,3798 15773,3797 16696,3804C17414,3809 17724,3815 17849,3825C18598,3888 19100,4103 19482,4523C19742,4808 19906,5165 19967,5580C19995,5772 19992,6267 19962,6440C19836,7169 19460,7690 18844,7986C18464,8170 18062,8235 17345,8229C16901,8225 16094,8228 15885,8235C15772,8238 15715,8236 15690,8227ZM17740,8045C17980,8006 18156,7920 18321,7763C18579,7516 18734,7132 18805,6565C18865,6078 18837,5405 18739,5015C18654,4677 18541,4459 18365,4291C18278,4209 18210,4162 18096,4109C17918,4027 17650,3985 17455,4010C17347,4024 17291,4046 17257,4092C17197,4170 17200,4079 17200,6016C17200,7778 17202,7904 17233,7969C17271,8048 17506,8082 17740,8045Z" style="fill-rule:nonzero;"/>
        <path d="M12330,7791L12330,7322L12263,7316C12040,7296 11838,7258 11695,7208C11662,7196 11183,6999 10630,6770C10077,6540 9617,6350 9608,6347C9591,6341 9590,6319 9590,6082L9590,5824L10381,5452C11004,5159 11180,5080 11211,5080L11250,5080L11248,5317L11245,5553L10740,5787C10462,5915 10205,6032 10168,6047C10130,6061 10100,6076 10100,6080C10100,6083 10126,6094 10158,6104C10189,6114 10355,6178 10525,6245C11957,6812 11928,6801 12035,6824C12137,6845 12295,6864 12314,6857C12328,6851 12330,6816 12330,6516C12330,6259 12327,6179 12318,6173C12311,6169 12262,6152 12210,6134C11901,6033 11718,5854 11648,5587C11616,5467 11617,5219 11648,5107C11685,4978 11745,4879 11839,4792C11929,4708 12071,4640 12209,4614C12251,4606 12295,4597 12308,4594L12330,4590L12330,4120L12608,4120L12614,4182C12617,4217 12619,4324 12618,4420L12615,4594L12655,4603C12928,4659 12932,4661 14070,5214C14496,5422 14949,5641 15075,5702C15202,5764 15311,5818 15318,5823C15327,5830 15330,5894 15330,6080C15330,6266 15327,6330 15318,6337C15311,6343 15085,6451 14815,6578C14546,6705 14190,6872 14025,6950C13807,7053 13717,7090 13695,7088L13665,7085L13662,6853C13660,6621 13660,6621 13682,6606C13713,6587 14712,6127 14773,6105L14822,6087L14743,6055C14700,6037 14559,5971 14430,5908C12767,5093 12767,5093 12649,5066C12623,5060 12622,5062 12618,5108C12615,5148 12615,5565 12619,5672C12620,5705 12623,5709 12653,5715C12670,5719 12728,5736 12780,5752C12950,5806 13084,5885 13170,5983C13313,6145 13362,6284 13363,6535C13364,6707 13345,6802 13286,6918C13183,7120 12954,7273 12705,7305C12612,7317 12620,7296 12619,7528C12618,7642 12615,7746 12611,7760C12604,7785 12604,7785 12467,7788L12330,7791ZM12723,6793C12805,6736 12859,6622 12845,6532C12838,6482 12810,6417 12782,6385C12754,6352 12676,6292 12647,6281C12624,6272 12620,6273 12619,6288C12618,6297 12617,6427 12616,6577L12615,6848L12650,6834C12669,6826 12702,6807 12723,6793ZM12330,5335L12330,5070L12292,5089C12114,5180 12090,5391 12240,5543C12333,5636 12330,5642 12330,5335Z" style="fill:rgb(196,149,58);fill-rule:nonzero;"/>
    </g>
</svg>
